<svg width="0" height="0" class="hidden">
  <symbol xmlns="http://www.w3.org/2000/svg" viewBox="0 0 120 120" id="logo-light">
    <defs>
      <linearGradient x1="50%" y1="0%" x2="50%" y2="100%" id="a">
        <stop stop-color="#38AEEB" offset="0%"></stop>
        <stop stop-color="#279AD1" offset="100%"></stop>
      </linearGradient>
    </defs>
    <g fill="none">
      <circle fill="url(#a)" cx="60" cy="60" r="60"></circle>
      <path d="M23.775 58.77a3278.85 3278.85 0 0 1 39.27-16.223c18.698-7.454 21.3-8.542 23.828-8.58a4.995 4.995 0 0 1 2.977 1.103c1.058.9 1.38 1.47 1.47 1.972.083.503.075 2.07-.015 2.963-1.013 10.207-4.86 33.78-7.088 45.225-.945 4.837-2.805 6.457-4.605 6.615-3.907.345-6.877-2.475-10.664-4.86-5.925-3.728-7.905-5.1-13.65-8.737-6.653-4.2-3.916-5.663-.128-9.436.99-.982 17.415-15.974 17.662-17.34.21-1.2.286-1.357-.254-1.897-.548-.54-1.2-.473-1.62-.383-.6.128-9.645 5.85-27.15 17.176-2.685 1.777-5.115 2.64-7.298 2.595-2.4-.053-7.027-1.305-10.462-2.378-4.223-1.32-7.575-2.01-7.275-4.245.15-1.163 1.814-2.355 5.002-3.57Z" fill="#FFF"></path>
    </g>
  </symbol>
  <symbol xmlns="http://www.w3.org/2000/svg" viewBox="0 0 120 120" id="logo-dark">
    <defs>
      <linearGradient x1="50%" y1="0%" x2="50%" y2="100%" id="a">
        <stop stop-color="#38AEEB" offset="0%"></stop>
        <stop stop-color="#279AD1" offset="100%"></stop>
      </linearGradient>
    </defs>
    <g fill="none">
      <circle fill="url(#a)" cx="60" cy="60" r="60"></circle>
      <path d="M23.775 58.77a3278.85 3278.85 0 0 1 39.27-16.223c18.698-7.454 21.3-8.542 23.828-8.58a4.995 4.995 0 0 1 2.977 1.103c1.058.9 1.38 1.47 1.47 1.972.083.503.075 2.07-.015 2.963-1.013 10.207-4.86 33.78-7.088 45.225-.945 4.837-2.805 6.457-4.605 6.615-3.907.345-6.877-2.475-10.664-4.86-5.925-3.728-7.905-5.1-13.65-8.737-6.653-4.2-3.916-5.663-.128-9.436.99-.982 17.415-15.974 17.662-17.34.21-1.2.286-1.357-.254-1.897-.548-.54-1.2-.473-1.62-.383-.6.128-9.645 5.85-27.15 17.176-2.685 1.777-5.115 2.64-7.298 2.595-2.4-.053-7.027-1.305-10.462-2.378-4.223-1.32-7.575-2.01-7.275-4.245.15-1.163 1.814-2.355 5.002-3.57Z" fill="#000"></path>
    </g>
  </symbol>
  <symbol xmlns="http://www.w3.org/2000/svg" viewBox="0 0 24 24" id="pencil-outline">
    <path d="M14.06,9L15,9.94L5.92,19H5V18.08L14.06,9M17.66,3C17.41,3 17.15,3.1 16.96,3.29L15.13,5.12L18.88,8.87L20.71,7.04C21.1,6.65 21.1,6 20.71,5.63L18.37,3.29C18.17,3.09 17.92,3 17.66,3M14.06,6.19L3,17.25V21H6.75L17.81,9.94L14.06,6.19Z"></path>
  </symbol>
</svg>
